<svg width="16" height="16" viewBox="0 0 16 16" fill="none" xmlns="http://www.w3.org/2000/svg">
<rect width="16" height="16" rx="2" fill="black"/>
<path d="M3.40527 6.04014V9.95974C3.40527 10.2 3.56268 10.4403 3.78907 10.5596L7.61822 12.5194C7.86583 12.6388 8.15943 12.6388 8.40704 12.5194L12.2362 10.5596C12.4838 10.4403 12.62 10.2 12.62 9.95974V6.04014C12.62 5.79988 12.4626 5.55962 12.2362 5.44027L8.40527 3.48047C8.15766 3.36112 7.86406 3.36112 7.61645 3.48047L3.7873 5.44027C3.53969 5.55962 3.40527 5.79988 3.40527 6.04014Z" fill="#213147"/>
<path d="M8.85582 8.76005L8.31461 10.0807C8.29162 10.12 8.29162 10.1608 8.31461 10.2001L9.26084 12.4802L10.3415 11.9196L9.03445 8.76005C9.01323 8.67996 8.90003 8.67996 8.85582 8.76005Z" fill="#12AAFF"/>
<path d="M9.93612 6.52076C9.91313 6.44067 9.8017 6.44067 9.75572 6.52076L9.21451 7.84142C9.19152 7.88068 9.19152 7.92151 9.21451 7.96077L10.7462 11.7013L11.8268 11.1407L9.93612 6.52076Z" fill="#12AAFF"/>
<path d="M8 3.62029C8.02299 3.62029 8.04422 3.62029 8.06721 3.6407L12.2112 5.76068C12.2554 5.78109 12.2784 5.82035 12.2784 5.88002V10.12C12.2784 10.1592 12.2554 10.2205 12.2112 10.2393L8.06721 12.3593C8.04422 12.3797 8.02299 12.3797 8 12.3797C7.97701 12.3797 7.95578 12.3797 7.93279 12.3593L3.78882 10.2393C3.74461 10.2189 3.72161 10.1796 3.72161 10.12V5.88002C3.72161 5.84077 3.74461 5.77952 3.78882 5.76068L7.93279 3.6407C7.95401 3.62029 7.97701 3.62029 8 3.62029ZM8 3C7.84259 3 7.7064 3.03926 7.57198 3.1005L3.42802 5.22048C3.15741 5.36024 3 5.6005 3 5.88002V10.12C3 10.3807 3.15741 10.6398 3.42802 10.7795L7.57198 12.8995C7.7064 12.9592 7.84259 13 8 13C8.15741 13 8.2936 12.9607 8.42802 12.8995L12.572 10.7795C12.8426 10.6398 13 10.3995 13 10.12V5.88002C13 5.61935 12.8426 5.36024 12.572 5.22048L8.44924 3.1005C8.31482 3.04083 8.17863 3 8.02122 3H8Z" fill="#9DCCED"/>
<path d="M5.27441 11.6998L5.65644 10.7795L6.42227 11.3402L5.70243 11.94L5.27441 11.6998Z" fill="#213147"/>
<path d="M7.66223 5.57999H6.60281C6.5356 5.57999 6.44539 5.61925 6.4224 5.68049L4.1709 11.1594L5.25155 11.7201L7.72944 5.69933C7.75243 5.63966 7.70645 5.57999 7.63924 5.57999H7.66223Z" fill="white"/>
<path d="M9.48584 5.58H8.42642C8.35921 5.58 8.269 5.61926 8.24601 5.6805L5.67969 11.9195L6.76034 12.4801L9.55305 5.6805C9.57604 5.62083 9.53006 5.56116 9.46285 5.56116L9.48584 5.58Z" fill="white"/>
</svg>
