<svg width="16" height="16" viewBox="0 0 16 16" fill="none" xmlns="http://www.w3.org/2000/svg">
<rect width="16" height="16" rx="2" fill="black"/>
<path fill-rule="evenodd" clip-rule="evenodd" d="M6.05864 7.20188L8.00089 5.26049L9.94392 7.20346L11.0734 6.07322L8.00089 3L4.92836 6.07243L6.05864 7.20188ZM3 8.00017L4.12987 6.87035L5.25973 8.00017L4.12987 9.13L3 8.00017ZM8.00086 10.7403L6.05862 8.79808L4.92676 9.92675L4.92834 9.92833L8.00086 13L11.0734 9.92675L11.0742 9.92596L9.9439 8.79729L8.00086 10.7403ZM10.7402 8.00052L11.8701 6.87069L13 8.00052L11.8701 9.13035L10.7402 8.00052ZM8.00093 6.85271L9.147 7.99954H9.14779L9.147 8.00033L8.00093 9.14716L6.85485 8.00191L6.85327 7.99954L6.85485 7.99796L7.05547 7.79735L7.15342 7.7002L8.00093 6.85271Z" fill="#F3BA2F"/>
</svg>
