<svg width="16" height="16" viewBox="0 0 16 16" fill="none" xmlns="http://www.w3.org/2000/svg">
<rect width="16" height="16" rx="2" fill="black"/>
<path d="M10.1706 10.0407L12.7751 8.49329C12.9197 8.41107 13 8.26309 13 8.09866V5.00375C13 4.83932 12.9197 4.69133 12.7751 4.60912L10.1706 3.06166C10.026 2.97945 9.8653 2.97945 9.72071 3.06166L7.11441 4.60912C6.96982 4.69133 6.88948 4.83932 6.88948 5.00375V10.5176L5.05615 11.6046L3.22282 10.5176V8.36174L5.05615 7.27469L6.2629 7.98173V6.53293L5.28108 5.95743C5.21681 5.92455 5.13648 5.89166 5.05615 5.89166C4.97582 5.89166 4.89549 5.9081 4.83122 5.95743L2.22493 7.50671C2.08033 7.58893 2 7.73691 2 7.90134V10.9963C2 11.1607 2.08033 11.3087 2.22493 11.3909L4.82944 12.9383C4.97403 13.0206 5.1347 13.0206 5.27929 12.9383L7.8838 11.3909C8.0284 11.3087 8.10873 11.1607 8.10873 10.9963V5.48242L8.14086 5.46597L9.94385 4.39536L11.7772 5.48242V7.63826L9.94385 8.72349L8.7371 8.01644V9.46524L9.71892 10.0407C9.86352 10.123 10.0242 10.123 10.1706 10.0407Z" fill="url(#paint0_linear_1543_26214)"/>
<defs>
<linearGradient id="paint0_linear_1543_26214" x1="1.98198" y1="11.3002" x2="12.5899" y2="5.24336" gradientUnits="userSpaceOnUse">
<stop stop-color="#A726C1"/>
<stop offset="0.8784" stop-color="#803BDF"/>
<stop offset="1" stop-color="#7B3FE4"/>
</linearGradient>
</defs>
</svg>
