<svg width="94" height="94" viewBox="0 0 94 94" fill="none" xmlns="http://www.w3.org/2000/svg">
<g clip-path="url(#clip0_1642_10775)">
<path d="M94 0H0V94H94V0Z" fill="white"/>
<path d="M9.79167 5.875H5.875V9.79167H9.79167V5.875Z" fill="black"/>
<path d="M13.7083 5.875H9.79167V9.79167H13.7083V5.875Z" fill="black"/>
<path d="M17.625 5.875H13.7083V9.79167H17.625V5.875Z" fill="black"/>
<path d="M21.5417 5.875H17.625V9.79167H21.5417V5.875Z" fill="black"/>
<path d="M25.4583 5.875H21.5417V9.79167H25.4583V5.875Z" fill="black"/>
<path d="M29.375 5.875H25.4583V9.79167H29.375V5.875Z" fill="black"/>
<path d="M33.2917 5.875H29.375V9.79167H33.2917V5.875Z" fill="black"/>
<path d="M41.125 5.875H37.2083V9.79167H41.125V5.875Z" fill="black"/>
<path d="M48.9583 5.875H45.0417V9.79167H48.9583V5.875Z" fill="black"/>
<path d="M52.875 5.875H48.9583V9.79167H52.875V5.875Z" fill="black"/>
<path d="M56.7917 5.875H52.875V9.79167H56.7917V5.875Z" fill="black"/>
<path d="M64.625 5.875H60.7083V9.79167H64.625V5.875Z" fill="black"/>
<path d="M68.5417 5.875H64.625V9.79167H68.5417V5.875Z" fill="black"/>
<path d="M72.4583 5.875H68.5417V9.79167H72.4583V5.875Z" fill="black"/>
<path d="M76.375 5.875H72.4583V9.79167H76.375V5.875Z" fill="black"/>
<path d="M80.2917 5.875H76.375V9.79167H80.2917V5.875Z" fill="black"/>
<path d="M84.2083 5.875H80.2917V9.79167H84.2083V5.875Z" fill="black"/>
<path d="M88.125 5.875H84.2083V9.79167H88.125V5.875Z" fill="black"/>
<path d="M9.79167 9.79167H5.875V13.7083H9.79167V9.79167Z" fill="black"/>
<path d="M33.2917 9.79167H29.375V13.7083H33.2917V9.79167Z" fill="black"/>
<path d="M45.0417 9.79167H41.125L41.125 13.7083H45.0417L45.0417 9.79167Z" fill="black"/>
<path d="M52.875 9.79167H48.9583L48.9583 13.7083H52.875V9.79167Z" fill="black"/>
<path d="M64.625 9.79167H60.7083V13.7083H64.625V9.79167Z" fill="black"/>
<path d="M88.125 9.79167H84.2083V13.7083H88.125V9.79167Z" fill="black"/>
<path d="M9.79167 13.7083H5.875V17.625H9.79167V13.7083Z" fill="black"/>
<path d="M17.625 13.7083H13.7083V17.625H17.625V13.7083Z" fill="black"/>
<path d="M21.5417 13.7083H17.625V17.625H21.5417V13.7083Z" fill="black"/>
<path d="M25.4583 13.7083H21.5417V17.625H25.4583V13.7083Z" fill="black"/>
<path d="M33.2917 13.7083H29.375V17.625H33.2917V13.7083Z" fill="black"/>
<path d="M41.125 13.7083H37.2083V17.625H41.125L41.125 13.7083Z" fill="black"/>
<path d="M48.9583 13.7083H45.0417L45.0417 17.625H48.9583L48.9583 13.7083Z" fill="black"/>
<path d="M52.875 13.7083H48.9583L48.9583 17.625H52.875V13.7083Z" fill="black"/>
<path d="M64.625 13.7083H60.7083V17.625H64.625V13.7083Z" fill="black"/>
<path d="M72.4583 13.7083H68.5417V17.625H72.4583V13.7083Z" fill="black"/>
<path d="M76.375 13.7083H72.4583V17.625H76.375V13.7083Z" fill="black"/>
<path d="M80.2917 13.7083H76.375V17.625H80.2917V13.7083Z" fill="black"/>
<path d="M88.125 13.7083H84.2083V17.625H88.125V13.7083Z" fill="black"/>
<path d="M9.79167 17.625H5.875V21.5417H9.79167V17.625Z" fill="black"/>
<path d="M17.625 17.625H13.7083V21.5417H17.625V17.625Z" fill="black"/>
<path d="M21.5417 17.625H17.625V21.5417H21.5417V17.625Z" fill="black"/>
<path d="M25.4583 17.625H21.5417V21.5417H25.4583V17.625Z" fill="black"/>
<path d="M33.2917 17.625H29.375V21.5417H33.2917V17.625Z" fill="black"/>
<path d="M41.125 17.625H37.2083V21.5417H41.125V17.625Z" fill="black"/>
<path d="M52.875 17.625H48.9583L48.9583 21.5417H52.875V17.625Z" fill="black"/>
<path d="M64.625 17.625H60.7083V21.5417H64.625V17.625Z" fill="black"/>
<path d="M72.4583 17.625H68.5417V21.5417H72.4583V17.625Z" fill="black"/>
<path d="M76.375 17.625H72.4583V21.5417H76.375V17.625Z" fill="black"/>
<path d="M80.2917 17.625H76.375V21.5417H80.2917V17.625Z" fill="black"/>
<path d="M88.125 17.625H84.2083V21.5417H88.125V17.625Z" fill="black"/>
<path d="M9.79167 21.5417H5.875V25.4583H9.79167V21.5417Z" fill="black"/>
<path d="M17.625 21.5417H13.7083V25.4583H17.625V21.5417Z" fill="black"/>
<path d="M21.5417 21.5417H17.625V25.4583H21.5417V21.5417Z" fill="black"/>
<path d="M25.4583 21.5417H21.5417V25.4583H25.4583V21.5417Z" fill="black"/>
<path d="M33.2917 21.5417H29.375V25.4583H33.2917V21.5417Z" fill="black"/>
<path d="M45.0417 21.5417H41.125L41.125 25.4583H45.0417V21.5417Z" fill="black"/>
<path d="M64.625 21.5417H60.7083V25.4583H64.625V21.5417Z" fill="black"/>
<path d="M72.4583 21.5417H68.5417V25.4583H72.4583V21.5417Z" fill="black"/>
<path d="M76.375 21.5417H72.4583V25.4583H76.375V21.5417Z" fill="black"/>
<path d="M80.2917 21.5417H76.375V25.4583H80.2917V21.5417Z" fill="black"/>
<path d="M88.125 21.5417H84.2083V25.4583H88.125V21.5417Z" fill="black"/>
<path d="M9.79167 25.4583H5.875V29.375H9.79167V25.4583Z" fill="black"/>
<path d="M33.2917 25.4583H29.375V29.375H33.2917V25.4583Z" fill="black"/>
<path d="M41.125 25.4583H37.2083V29.375H41.125L41.125 25.4583Z" fill="black"/>
<path d="M56.7917 25.4583H52.875V29.375H56.7917V25.4583Z" fill="black"/>
<path d="M64.625 25.4583H60.7083V29.375H64.625V25.4583Z" fill="black"/>
<path d="M88.125 25.4583H84.2083V29.375H88.125V25.4583Z" fill="black"/>
<path d="M9.79167 29.375H5.875V33.2917H9.79167V29.375Z" fill="black"/>
<path d="M13.7083 29.375H9.79167V33.2917H13.7083V29.375Z" fill="black"/>
<path d="M17.625 29.375H13.7083V33.2917H17.625V29.375Z" fill="black"/>
<path d="M21.5417 29.375H17.625V33.2917H21.5417V29.375Z" fill="black"/>
<path d="M25.4583 29.375H21.5417V33.2917H25.4583V29.375Z" fill="black"/>
<path d="M29.375 29.375H25.4583V33.2917H29.375V29.375Z" fill="black"/>
<path d="M33.2917 29.375H29.375V33.2917H33.2917V29.375Z" fill="black"/>
<path d="M41.125 29.375H37.2083V33.2917H41.125V29.375Z" fill="black"/>
<path d="M48.9583 29.375H45.0417V33.2917H48.9583V29.375Z" fill="black"/>
<path d="M56.7917 29.375H52.875V33.2917H56.7917V29.375Z" fill="black"/>
<path d="M64.625 29.375H60.7083V33.2917H64.625V29.375Z" fill="black"/>
<path d="M68.5417 29.375H64.625V33.2917H68.5417V29.375Z" fill="black"/>
<path d="M72.4583 29.375H68.5417V33.2917H72.4583V29.375Z" fill="black"/>
<path d="M76.375 29.375H72.4583V33.2917H76.375V29.375Z" fill="black"/>
<path d="M80.2917 29.375H76.375V33.2917H80.2917V29.375Z" fill="black"/>
<path d="M84.2083 29.375H80.2917V33.2917H84.2083V29.375Z" fill="black"/>
<path d="M88.125 29.375H84.2083V33.2917H88.125V29.375Z" fill="black"/>
<path d="M41.125 33.2917H37.2083V37.2083H41.125V33.2917Z" fill="black"/>
<path d="M52.875 33.2917H48.9583L48.9583 37.2083H52.875V33.2917Z" fill="black"/>
<path d="M56.7917 33.2917H52.875V37.2083H56.7917V33.2917Z" fill="black"/>
<path d="M9.79167 37.2083H5.875V41.125H9.79167V37.2083Z" fill="black"/>
<path d="M13.7083 37.2083H9.79167V41.125H13.7083V37.2083Z" fill="black"/>
<path d="M21.5417 37.2083H17.625V41.125H21.5417V37.2083Z" fill="black"/>
<path d="M33.2917 37.2083H29.375V41.125H33.2917V37.2083Z" fill="black"/>
<path d="M37.2083 37.2083L33.2917 37.2083V41.125H37.2083L37.2083 37.2083Z" fill="black"/>
<path d="M45.0417 37.2083L41.125 37.2083L41.125 41.125H45.0417V37.2083Z" fill="black"/>
<path d="M56.7917 37.2083H52.875V41.125H56.7917V37.2083Z" fill="black"/>
<path d="M60.7083 37.2083L56.7917 37.2083V41.125H60.7083V37.2083Z" fill="black"/>
<path d="M64.625 37.2083H60.7083V41.125H64.625V37.2083Z" fill="black"/>
<path d="M68.5417 37.2083H64.625V41.125H68.5417V37.2083Z" fill="black"/>
<path d="M76.375 37.2083H72.4583V41.125H76.375V37.2083Z" fill="black"/>
<path d="M80.2917 37.2083H76.375V41.125H80.2917V37.2083Z" fill="black"/>
<path d="M88.125 37.2083H84.2083V41.125H88.125V37.2083Z" fill="black"/>
<path d="M9.79167 41.125H5.875V45.0417H9.79167V41.125Z" fill="black"/>
<path d="M13.7083 41.125H9.79167V45.0417H13.7083V41.125Z" fill="black"/>
<path d="M21.5417 41.125H17.625V45.0417H21.5417V41.125Z" fill="black"/>
<path d="M29.375 41.125L25.4583 41.125V45.0417H29.375V41.125Z" fill="black"/>
<path d="M45.0417 41.125H41.125V45.0417H45.0417V41.125Z" fill="black"/>
<path d="M52.875 41.125L48.9583 41.125V45.0417H52.875V41.125Z" fill="black"/>
<path d="M60.7083 41.125H56.7917V45.0417H60.7083V41.125Z" fill="black"/>
<path d="M64.625 41.125H60.7083V45.0417H64.625V41.125Z" fill="black"/>
<path d="M76.375 41.125H72.4583V45.0417H76.375V41.125Z" fill="black"/>
<path d="M80.2917 41.125H76.375V45.0417H80.2917V41.125Z" fill="black"/>
<path d="M84.2083 41.125H80.2917V45.0417H84.2083V41.125Z" fill="black"/>
<path d="M88.125 41.125H84.2083V45.0417H88.125V41.125Z" fill="black"/>
<path d="M9.79167 45.0417H5.875V48.9583H9.79167V45.0417Z" fill="black"/>
<path d="M17.625 45.0417H13.7083V48.9583H17.625V45.0417Z" fill="black"/>
<path d="M25.4583 45.0417H21.5417V48.9583H25.4583V45.0417Z" fill="black"/>
<path d="M29.375 45.0417H25.4583V48.9583H29.375V45.0417Z" fill="black"/>
<path d="M33.2917 45.0417L29.375 45.0417V48.9583H33.2917V45.0417Z" fill="black"/>
<path d="M37.2083 45.0417H33.2917V48.9583H37.2083V45.0417Z" fill="black"/>
<path d="M45.0417 45.0417H41.125V48.9583H45.0417V45.0417Z" fill="black"/>
<path d="M48.9583 45.0417H45.0417V48.9583H48.9583L48.9583 45.0417Z" fill="black"/>
<path d="M52.875 45.0417H48.9583L48.9583 48.9583H52.875V45.0417Z" fill="black"/>
<path d="M56.7917 45.0417H52.875V48.9583H56.7917V45.0417Z" fill="black"/>
<path d="M60.7083 45.0417H56.7917V48.9583H60.7083V45.0417Z" fill="black"/>
<path d="M68.5417 45.0417L64.625 45.0417V48.9583H68.5417V45.0417Z" fill="black"/>
<path d="M72.4583 45.0417L68.5417 45.0417V48.9583H72.4583V45.0417Z" fill="black"/>
<path d="M76.375 45.0417H72.4583V48.9583H76.375V45.0417Z" fill="black"/>
<path d="M88.125 45.0417H84.2083V48.9583H88.125V45.0417Z" fill="black"/>
<path d="M21.5417 48.9583H17.625V52.875H21.5417V48.9583Z" fill="black"/>
<path d="M56.7917 48.9583H52.875V52.875H56.7917V48.9583Z" fill="black"/>
<path d="M68.5417 48.9583H64.625V52.875H68.5417V48.9583Z" fill="black"/>
<path d="M72.4583 48.9583H68.5417V52.875H72.4583V48.9583Z" fill="black"/>
<path d="M80.2917 48.9583L76.375 48.9583V52.875H80.2917V48.9583Z" fill="black"/>
<path d="M84.2083 48.9583L80.2917 48.9583V52.875H84.2083V48.9583Z" fill="black"/>
<path d="M88.125 48.9583H84.2083V52.875H88.125V48.9583Z" fill="black"/>
<path d="M13.7083 52.875H9.79167V56.7917H13.7083V52.875Z" fill="black"/>
<path d="M33.2917 52.875H29.375V56.7917H33.2917V52.875Z" fill="black"/>
<path d="M45.0417 52.875H41.125V56.7917H45.0417V52.875Z" fill="black"/>
<path d="M48.9583 52.875H45.0417V56.7917H48.9583V52.875Z" fill="black"/>
<path d="M52.875 52.875H48.9583V56.7917H52.875V52.875Z" fill="black"/>
<path d="M68.5417 52.875H64.625V56.7917H68.5417V52.875Z" fill="black"/>
<path d="M84.2083 52.875H80.2917V56.7917H84.2083V52.875Z" fill="black"/>
<path d="M88.125 52.875H84.2083V56.7917H88.125V52.875Z" fill="black"/>
<path d="M48.9583 56.7917H45.0417L45.0417 60.7083H48.9583V56.7917Z" fill="black"/>
<path d="M52.875 56.7917H48.9583V60.7083H52.875V56.7917Z" fill="black"/>
<path d="M56.7917 56.7917H52.875V60.7083H56.7917V56.7917Z" fill="black"/>
<path d="M60.7083 56.7917H56.7917V60.7083H60.7083V56.7917Z" fill="black"/>
<path d="M64.625 56.7917H60.7083V60.7083H64.625V56.7917Z" fill="black"/>
<path d="M68.5417 56.7917H64.625V60.7083H68.5417V56.7917Z" fill="black"/>
<path d="M76.375 56.7917H72.4583V60.7083H76.375V56.7917Z" fill="black"/>
<path d="M80.2917 56.7917H76.375V60.7083H80.2917V56.7917Z" fill="black"/>
<path d="M9.79167 60.7083H5.875V64.625H9.79167V60.7083Z" fill="black"/>
<path d="M13.7083 60.7083H9.79167V64.625H13.7083V60.7083Z" fill="black"/>
<path d="M17.625 60.7083H13.7083V64.625H17.625V60.7083Z" fill="black"/>
<path d="M21.5417 60.7083H17.625V64.625H21.5417V60.7083Z" fill="black"/>
<path d="M25.4583 60.7083H21.5417V64.625H25.4583V60.7083Z" fill="black"/>
<path d="M29.375 60.7083H25.4583V64.625H29.375V60.7083Z" fill="black"/>
<path d="M33.2917 60.7083H29.375V64.625H33.2917V60.7083Z" fill="black"/>
<path d="M41.125 60.7083H37.2083V64.625H41.125V60.7083Z" fill="black"/>
<path d="M48.9583 60.7083H45.0417V64.625H48.9583V60.7083Z" fill="black"/>
<path d="M64.625 60.7083H60.7083V64.625H64.625V60.7083Z" fill="black"/>
<path d="M68.5417 60.7083H64.625V64.625H68.5417V60.7083Z" fill="black"/>
<path d="M72.4583 60.7083H68.5417V64.625H72.4583V60.7083Z" fill="black"/>
<path d="M84.2083 60.7083H80.2917V64.625H84.2083V60.7083Z" fill="black"/>
<path d="M9.79167 64.625H5.875V68.5417H9.79167V64.625Z" fill="black"/>
<path d="M33.2917 64.625H29.375V68.5417H33.2917V64.625Z" fill="black"/>
<path d="M45.0417 64.625H41.125L41.125 68.5417H45.0417L45.0417 64.625Z" fill="black"/>
<path d="M48.9583 64.625H45.0417L45.0417 68.5417H48.9583V64.625Z" fill="black"/>
<path d="M72.4583 64.625H68.5417V68.5417H72.4583V64.625Z" fill="black"/>
<path d="M88.125 64.625H84.2083V68.5417H88.125V64.625Z" fill="black"/>
<path d="M9.79167 68.5417H5.875V72.4583H9.79167V68.5417Z" fill="black"/>
<path d="M17.625 68.5417H13.7083V72.4583H17.625V68.5417Z" fill="black"/>
<path d="M21.5417 68.5417H17.625V72.4583H21.5417V68.5417Z" fill="black"/>
<path d="M25.4583 68.5417H21.5417V72.4583H25.4583V68.5417Z" fill="black"/>
<path d="M33.2917 68.5417H29.375V72.4583H33.2917V68.5417Z" fill="black"/>
<path d="M48.9583 68.5417H45.0417L45.0417 72.4583H48.9583V68.5417Z" fill="black"/>
<path d="M56.7917 68.5417H52.875V72.4583H56.7917V68.5417Z" fill="black"/>
<path d="M64.625 68.5417H60.7083V72.4583H64.625V68.5417Z" fill="black"/>
<path d="M68.5417 68.5417H64.625V72.4583H68.5417V68.5417Z" fill="black"/>
<path d="M72.4583 68.5417H68.5417V72.4583H72.4583V68.5417Z" fill="black"/>
<path d="M88.125 68.5417H84.2083V72.4583H88.125V68.5417Z" fill="black"/>
<path d="M9.79167 72.4583H5.875V76.375H9.79167V72.4583Z" fill="black"/>
<path d="M17.625 72.4583H13.7083V76.375H17.625V72.4583Z" fill="black"/>
<path d="M21.5417 72.4583H17.625V76.375H21.5417V72.4583Z" fill="black"/>
<path d="M25.4583 72.4583H21.5417V76.375H25.4583V72.4583Z" fill="black"/>
<path d="M33.2917 72.4583H29.375V76.375H33.2917V72.4583Z" fill="black"/>
<path d="M41.125 72.4583H37.2083V76.375H41.125V72.4583Z" fill="black"/>
<path d="M48.9583 72.4583H45.0417V76.375H48.9583V72.4583Z" fill="black"/>
<path d="M52.875 72.4583H48.9583V76.375H52.875V72.4583Z" fill="black"/>
<path d="M56.7917 72.4583H52.875V76.375H56.7917V72.4583Z" fill="black"/>
<path d="M60.7083 72.4583H56.7917V76.375H60.7083V72.4583Z" fill="black"/>
<path d="M64.625 72.4583H60.7083V76.375H64.625V72.4583Z" fill="black"/>
<path d="M68.5417 72.4583H64.625V76.375H68.5417V72.4583Z" fill="black"/>
<path d="M88.125 72.4583H84.2083V76.375H88.125V72.4583Z" fill="black"/>
<path d="M9.79167 76.375H5.875V80.2917H9.79167V76.375Z" fill="black"/>
<path d="M17.625 76.375H13.7083V80.2917H17.625V76.375Z" fill="black"/>
<path d="M21.5417 76.375H17.625V80.2917H21.5417V76.375Z" fill="black"/>
<path d="M25.4583 76.375H21.5417V80.2917H25.4583V76.375Z" fill="black"/>
<path d="M33.2917 76.375H29.375V80.2917H33.2917V76.375Z" fill="black"/>
<path d="M45.0417 76.375H41.125L41.125 80.2917H45.0417L45.0417 76.375Z" fill="black"/>
<path d="M48.9583 76.375H45.0417L45.0417 80.2917H48.9583V76.375Z" fill="black"/>
<path d="M60.7083 76.375H56.7917V80.2917H60.7083V76.375Z" fill="black"/>
<path d="M68.5417 76.375H64.625V80.2917H68.5417V76.375Z" fill="black"/>
<path d="M72.4583 76.375H68.5417V80.2917H72.4583V76.375Z" fill="black"/>
<path d="M80.2917 76.375H76.375V80.2917H80.2917V76.375Z" fill="black"/>
<path d="M88.125 76.375H84.2083V80.2917H88.125V76.375Z" fill="black"/>
<path d="M9.79167 80.2917H5.875V84.2083H9.79167V80.2917Z" fill="black"/>
<path d="M33.2917 80.2917H29.375V84.2083H33.2917V80.2917Z" fill="black"/>
<path d="M41.125 80.2917H37.2083V84.2083H41.125L41.125 80.2917Z" fill="black"/>
<path d="M45.0417 80.2917H41.125L41.125 84.2083H45.0417V80.2917Z" fill="black"/>
<path d="M48.9583 80.2917H45.0417V84.2083H48.9583V80.2917Z" fill="black"/>
<path d="M72.4583 80.2917H68.5417V84.2083H72.4583V80.2917Z" fill="black"/>
<path d="M76.375 80.2917H72.4583V84.2083H76.375V80.2917Z" fill="black"/>
<path d="M9.79167 84.2083H5.875V88.125H9.79167V84.2083Z" fill="black"/>
<path d="M13.7083 84.2083H9.79167V88.125H13.7083V84.2083Z" fill="black"/>
<path d="M17.625 84.2083H13.7083V88.125H17.625V84.2083Z" fill="black"/>
<path d="M21.5417 84.2083H17.625V88.125H21.5417V84.2083Z" fill="black"/>
<path d="M25.4583 84.2083H21.5417V88.125H25.4583V84.2083Z" fill="black"/>
<path d="M29.375 84.2083H25.4583V88.125H29.375V84.2083Z" fill="black"/>
<path d="M33.2917 84.2083H29.375V88.125H33.2917V84.2083Z" fill="black"/>
<path d="M41.125 84.2083H37.2083V88.125H41.125V84.2083Z" fill="black"/>
<path d="M45.0417 84.2083H41.125V88.125H45.0417V84.2083Z" fill="black"/>
<path d="M48.9583 84.2083H45.0417V88.125H48.9583V84.2083Z" fill="black"/>
<path d="M52.875 84.2083H48.9583V88.125H52.875V84.2083Z" fill="black"/>
<path d="M60.7083 84.2083H56.7917V88.125H60.7083V84.2083Z" fill="black"/>
<path d="M68.5417 84.2083H64.625V88.125H68.5417V84.2083Z" fill="black"/>
<path d="M72.4583 84.2083H68.5417V88.125H72.4583V84.2083Z" fill="black"/>
<path d="M84.2083 84.2083H80.2917V88.125H84.2083V84.2083Z" fill="black"/>
</g>
<defs>
<clipPath id="clip0_1642_10775">
<rect width="94" height="94" rx="8.25366" fill="white"/>
</clipPath>
</defs>
</svg>
